<svg xmlns="http://www.w3.org/2000/svg" enable-background="new 0 0 48 48" viewBox="0 0 48 48" id="car"><path d="M46.966,28.023c-0.463,0.004-0.926,0.02-1.39,0.032c-2.681-6.388-9.746-10.383-16.581-9.912
	c-0.254-0.001-0.5,0.105-0.656,0.328c-0.805,1.143-1.586,2.305-2.341,3.487c-0.43-0.006-0.859-0.008-1.289-0.007
	c1.557-1.808,1.695-4.841-0.349-6.607c-1.418-1.36-3.624-1.653-5.384-0.86c0.004-0.173,0.01-0.347,0.013-0.52
	c0.01-0.533-0.423-0.973-0.956-0.969c-3.089-0.043-6.155,1.322-8.207,3.614c-0.289-0.994-0.572-1.989-0.876-2.978
	c-0.116-0.377-0.468-0.651-0.883-0.65C8.05,12.98,3.05,13.005,3.032,13.004l-1.994,0.04c-0.547-0.006-0.996,0.441-0.989,0.989
	c0.046,3.994,0.16,7.989,0.464,11.983c0.072,0.523,0.514,0.501,0.949,0.477c-0.571,1.385-0.685,3.031-0.091,4.834
	c2.287,6.127,9.897,5.658,12.437,1.237c2.717,0.381,5.436,0.484,8.155,0.512c2.796-0.002,5.593-0.079,8.391-0.46
	c0.102-0.014,0.191-0.063,0.267-0.128c0.042,0.151,0.108,0.319,0.234,0.525c3.259,4.353,8.686,3.004,11.038-0.474
	c1.697,0.212,3.393,0.33,5.09,0.381c0.507,0.015,0.93-0.385,0.945-0.892c0.029-1.007,0.04-2.014,0.039-3.021
	C47.961,28.458,47.513,28.018,46.966,28.023z M44.345,28.086c-0.364,0.014-0.728,0.039-1.091,0.058
	c-0.098-0.105-0.206-0.201-0.308-0.303c-0.122-0.745-0.37-1.51-0.783-2.281c-0.039-0.067-0.082-0.125-0.122-0.19
	C42.879,26.195,43.65,27.102,44.345,28.086z M29.334,19.805c3.101,0.153,6.051,1.016,8.662,2.498
	c-1.55-0.393-3.195-0.203-4.631,0.437c-1.955-0.468-3.976-0.678-6.012-0.753C28.024,21.268,28.688,20.543,29.334,19.805z
	 M31.102,24.327c-1.582,1.651-2.321,4.092-1.235,6.902c0.062,0.139,0.129,0.256,0.198,0.353c-0.976-0.121-1.953-0.216-2.929-0.295
	c-1.158-3.27-4.693-5.336-8.124-5.159c-1.635,0.029-3.394,0.006-5.053,0.203c-0.026-0.126-0.069-0.271-0.134-0.433
	c-0.595-1.146-1.361-1.999-2.22-2.598c-0.002-0.021-0.005-0.043-0.008-0.065c0.083,0.019,0.164,0.04,0.258,0.047
	C18.245,23.971,24.738,23.593,31.102,24.327z M22.002,19.071c-0.001-0.41-0.009-0.831-0.025-1.238
	c0.582-0.059,1.163-0.147,1.745-0.268c0.198,0.341,0.343,0.733,0.401,1.185c0.033,0.208,0.037,0.419,0.023,0.629
	C23.431,19.23,22.717,19.13,22.002,19.071z M20.846,16.054c-1.172,0.147-0.757,1.744-0.84,2.604l0.056,1.317
	c0.001,0.001,0.003,0.085,0.004,0.086c0.023,0.509,0.454,0.904,0.963,0.881c0.915-0.041,1.83-0.127,2.745-0.294
	c-0.272,0.521-0.678,0.981-1.193,1.321c-0.872,0.012-1.741,0.026-2.596,0.03c-0.165,0.001-0.332,0.008-0.498,0.009
	c-0.336-0.21-0.62-0.475-0.863-0.772c0.131-1.48,0.221-2.96,0.28-4.44C19.454,16.324,20.146,16.081,20.846,16.054z M17.078,15.024
	c0.059,2.34,0.182,4.679,0.413,7.019c-1.878,0.039-3.759,0.103-5.634,0.24c-0.174,0.012-0.328,0.052-0.464,0.105
	c-0.314-1.268-0.641-2.531-0.99-3.787C12.091,16.639,14.509,15.294,17.078,15.024z M1.985,25.48
	c-0.102-0.022-0.203-0.04-0.305-0.055c0.225-3.47,0.312-6.94,0.338-10.41c1.529-0.021,3.96-0.082,5.372-0.118
	c0.912,2.593,1.878,5.168,2.923,7.717C7.312,21.454,3.706,22.777,1.985,25.48z M9.325,33.96C5.406,35.022,1.65,30.711,3.385,27
	c1.559-3.89,7.328-4.273,9.562-0.625c0.215,0.372,0.469,0.575,0.672,0.617c0.014,0.039,0.03,0.077,0.043,0.116
	c-0.135,0.144-0.212,0.443-0.15,0.902C13.813,30.769,11.849,33.43,9.325,33.96z M14.301,31.461c0.354-1.052,0.454-2.265,0.196-3.621
	c-0.026-0.104-0.06-0.187-0.094-0.271c1.811,0.277,3.63,0.49,5.468,0.558c2.287,0.223,4.277,1.281,5.849,3.059
	C21.915,30.959,18.107,31.052,14.301,31.461z M40.893,30.127c-0.891,4.051-6.539,5.462-9.252,2.268
	c-0.335-0.402-0.681-0.541-0.887-0.464c-0.008-0.018-0.016-0.036-0.026-0.053c0.174-0.12,0.251-0.452,0.08-0.988
	c-0.771-2.588,0.636-5.507,3.103-6.494C37.6,22.704,41.972,26.139,40.893,30.127z M42.531,31.37
	c0.195-0.461,0.333-0.948,0.417-1.452c1.014,0.048,2.027,0.082,3.041,0.091c0.006,0.357,0.014,0.714,0.024,1.07
	C44.852,31.138,43.691,31.236,42.531,31.37z M38.127,27.68c2.192,2.878-2.093,5.933-4.406,3.289c-1.62-1.754-0.243-4.92,2.153-4.722
	c0.646-0.005,2.448,0.76,1.586,1.484c-0.194,0.132-0.38,0.162-0.492,0.117c-1.318-0.665-2.588,0.773-1.732,1.813
	c0.903,0.996,2.512-0.057,2.043-1.454C37.169,27.896,37.816,27.282,38.127,27.68z M10.139,26.863
	c1.737,1.635,0.608,4.909-1.805,4.87c-0.651,0.042-2.481-0.608-1.676-1.385c0.183-0.146,0.369-0.189,0.484-0.15
	c1.389,0.596,2.497-0.953,1.582-1.922c-0.967-0.915-2.518,0.194-1.922,1.582c0.134,0.305-0.467,0.963-0.806,0.592
	C3.562,27.737,7.636,24.397,10.139,26.863z"></path></svg>